HIERARCHY
ROOT pelvis
{
  OFFSET 0 100 0
  CHANNELS 6 Xposition Yposition Zposition Zrotation Xrotation Yrotation
  JOINT pelvis_right_femur
  {
    OFFSET -10.78128 -3.44521 -0.5502486
    CHANNELS 3 Zrotation Xrotation Yrotation
    JOINT right_femur_tibia
    {
      OFFSET -0.8047443 -44.0398 -0.1307829
      CHANNELS 3 Zrotation Xrotation Yrotation
      JOINT right_tibia_foot
      {
        OFFSET 3.006224 -47.83518 -5
        CHANNELS 3 Zrotation Xrotation Yrotation
        End Site
        {
          OFFSET 0 -5 15
        }
      }
    }
  }
  JOINT pelvis_left_femur
  {
    OFFSET 10.78128 -3.44521 -0.5502486
    CHANNELS 3 Zrotation Xrotation Yrotation
    JOINT left_femur_tibia
    {
      OFFSET 0.8047443 -44.0398 -0.1307829
      CHANNELS 3 Zrotation Xrotation Yrotation
      JOINT left_tibia_foot
      {
        OFFSET -4.370144 -48.10324 -4.275266
        CHANNELS 3 Zrotation Xrotation Yrotation
        End Site
        {
          OFFSET 0 -5 15
        }
      }
    }
  }
  JOINT pelvis_spine1
  {
    OFFSET 0 6.468898 -3.129235
    CHANNELS 3 Zrotation Xrotation Yrotation
    JOINT spine1
    {
      OFFSET 0 23.15396 4.99043
      CHANNELS 3 Zrotation Xrotation Yrotation
      JOINT spine2
      {
        OFFSET 0 20.79997 -5.064912
        CHANNELS 3 Zrotation Xrotation Yrotation
        JOINT neck
        {
          OFFSET 0 14.38658 9.616178
          CHANNELS 3 Zrotation Xrotation Yrotation
          End Site
          {
            OFFSET 0 20 0
          }
        }
      }
      JOINT right_manubrium
      {
        OFFSET -5.722621 16.35077 3.967754
        CHANNELS 3 Zrotation Xrotation Yrotation
        JOINT right_clavicle
        {
          OFFSET -13.16364 1.694482 -4.693211
          CHANNELS 3 Zrotation Xrotation Yrotation
          JOINT right_humerus
          {
            OFFSET -28.5034 -0.3100689 -2.792744
            CHANNELS 3 Zrotation Xrotation Yrotation
            JOINT right_radius
            {
              OFFSET -25.15693 0.02248979 -1.271978
              CHANNELS 3 Zrotation Xrotation Yrotation
              End Site
              {
                OFFSET -15 0 0
              }
            }
          }
        }
      }
      JOINT left_manubrium
      {
        OFFSET 5.722621 16.35077 3.967754
        CHANNELS 3 Zrotation Xrotation Yrotation
        JOINT left_clavicle
        {
          OFFSET 13.16364 1.694482 -4.693211
          CHANNELS 3 Zrotation Xrotation Yrotation
          JOINT left_humerus
          {
            OFFSET 29.39168 -1.063119 -2.237045
            CHANNELS 3 Zrotation Xrotation Yrotation
            JOINT left_radius
            {
              OFFSET 24.59957 -0.9528479 0.9047498
              CHANNELS 3 Zrotation Xrotation Yrotation
              End Site
              {
                OFFSET 15 -0 -0
              }
            }
          }
        }
      }
    }
  }
}
MOTION
Frames: 6
Frame Time: 0.0416666666667
29.20477 98.50667 242.4602 1.85179 -7.933512 3.701328 1.01029 12.53128 5.606661 7.176847e-10 39.23801 -7.486551e-10 -1.042312 -8.031888 -3.828284 -3.05966 -15.54256 -9.002003 -1.951417e-09 21.45848 -1.625765e-09 -5.816728 -9.586607 20.08708 -1.868956 0.03316925 6.921736 -1.457814 9.821106 -3.417011 2.225189 22.93097 5.138627 2.57647 -16.85568 6.723631 1.890224 -20.62356 10.67763 83.35361 24.91083 -8.002425 4.228047e-12 -3.14419e-11 21.7266 -21.37552 10.19298 12.29431 4.208994 -15.90165 -3.233315 -94.39105 26.82362 25.27544 -3.044126e-10 -3.874934e-10 -9.495252 -3.334089 8.678856 18.14645
30.38605 99.04719 248.1798 2.215911 -8.31866 4.089136 0.2870696 10.19389 5.852659 1.463068e-09 44.04477 -1.249083e-09 0.07181178 -6.434417 -4.784371 -3.901588 -12.31308 -9.520413 -2.153684e-09 21.02982 -1.826186e-09 -6.501237 -10.87561 19.84304 -2.245645 0.291245 6.464977 -1.565399 9.462925 -3.510397 2.349818 23.20486 5.346369 2.674685 -16.30349 6.951292 2.24793 -19.46866 10.40887 83.94657 24.99779 -8.766819 4.229237e-11 -7.26443e-11 20.67419 -21.41515 9.960972 11.99001 4.344663 -15.6409 -3.251494 -93.63288 27.77323 23.24733 -4.081624e-10 -5.374067e-10 -9.873483 -3.892116 7.8651 18.96223
31.57327 99.76432 253.9401 2.568543 -8.463023 4.687588 -0.3616893 6.72684 5.978712 2.327569e-09 48.65334 -1.864364e-09 1.05054 -4.78355 -5.738893 -4.860494 -8.145283 -10.29385 -2.34575e-09 19.84375 -1.916363e-09 -6.900771 -12.54536 19.56538 -2.661771 0.4855188 5.882873 -1.565887 9.078812 -3.748269 2.431396 23.44218 5.638673 2.800727 -15.96123 7.243084 2.68159 -18.25343 10.14146 84.65295 25.31615 -9.893034 7.880824e-11 -1.130734e-10 19.35437 -21.16373 9.705984 11.52523 4.550559 -15.54457 -3.274035 -92.7173 28.7477 20.95712 -5.074974e-10 -6.693243e-10 -10.6101 -4.231467 7.270959 19.51172
32.74718 100.5819 259.6359 2.7834 -8.246799 5.426537 -0.6796551 2.349953 5.874252 2.996843e-09 51.31701 -2.336212e-09 1.537881 -3.394467 -6.466574 -5.669532 -3.531674 -11.11052 -2.381063e-09 18.49695 -1.833207e-09 -6.894919 -14.22467 19.18112 -2.977595 0.5516208 5.240039 -1.400733 8.759879 -4.146067 2.438544 23.51411 5.945315 2.925608 -15.93681 7.517385 3.071199 -17.14639 9.923627 85.24587 25.78449 -11.3487 1.050545e-10 -1.425604e-10 17.77681 -20.51887 9.495119 10.87333 4.799893 -15.74634 -3.324561 -91.44675 29.46355 18.59142 -5.680502e-10 -7.366976e-10 -11.82893 -4.142894 7.122996 19.46224
33.89872 101.4102 265.213 2.854111 -7.788807 6.245975 -0.6830843 -2.18399 5.630608 3.320582e-09 52.03693 -2.52829e-09 1.526295 -2.419793 -6.908678 -6.238941 0.8042194 -11.87503 -2.266518e-09 17.38429 -1.618115e-09 -6.580929 -15.70427 18.81563 -3.165216 0.5019963 4.651841 -1.121068 8.572763 -4.637744 2.388266 23.50849 6.234051 3.045906 -16.22843 7.760576 3.374684 -16.33061 9.815204 85.98401 26.33415 -13.00396 1.196066e-10 -1.588309e-10 16.23569 -19.7027 9.374827 10.18886 5.064573 -16.2342 -3.404338 -90.37176 29.86636 16.60975 -5.869786e-10 -7.414845e-10 -13.34829 -3.717076 7.39142 18.9667
35.00563 102.1447 270.5408 2.699765 -6.950184 7.056685 -0.3410475 -6.769599 5.228239 3.121144e-09 50.10521 -2.280645e-09 0.8619287 -1.995779 -6.872963 -6.508946 4.640894 -12.60036 -1.996228e-09 15.99879 -1.21405e-09 -5.749017 -16.85278 18.42289 -3.195907 0.2875434 4.111736 -0.6945742 8.472723 -5.19798 2.249557 23.22364 6.464408 3.131151 -16.82949 7.912448 3.544573 -15.82353 9.771554 86.11773 26.9556 -14.55292 1.180341e-10 -1.55323e-10 14.74151 -18.50572 9.289633 9.407841 5.308531 -16.91562 -3.475711 -88.89051 29.83285 14.9907 -5.478471e-10 -6.651211e-10 -15.02419 -2.82933 8.143148 17.77202
